<svg xmlns="http://www.w3.org/2000/svg" viewBox="0 0 48 144" width="48" height="144">
  <rect x="0.5" y="0.5" width="47" height="143" fill="#7986cb" fill-opacity="0.35" stroke="#37474f" stroke-width="1"/>
  <rect x="1" y="1" width="46" height="3" fill="#5c6bc0" stroke="#37474f" stroke-width="0.5"/>
  <rect x="1" y="140" width="46" height="3" fill="#5c6bc0" stroke="#37474f" stroke-width="0.5"/>
  <rect x="22" y="4" width="4" height="136" fill="#5c6bc0"/>
  <line x1="24" y1="4" x2="24" y2="140" stroke="#37474f" stroke-width="0.75"/>
  <line x1="2" y1="18" x2="21" y2="18" stroke="#37474f" stroke-width="0.6"/>
  <line x1="2" y1="30" x2="21" y2="30" stroke="#37474f" stroke-width="0.6"/>
  <line x1="2" y1="42" x2="21" y2="42" stroke="#37474f" stroke-width="0.6"/>
  <line x1="2" y1="54" x2="21" y2="54" stroke="#37474f" stroke-width="0.6"/>
  <line x1="2" y1="66" x2="21" y2="66" stroke="#37474f" stroke-width="0.6"/>
  <line x1="2" y1="78" x2="21" y2="78" stroke="#37474f" stroke-width="0.6"/>
  <line x1="2" y1="90" x2="21" y2="90" stroke="#37474f" stroke-width="0.6"/>
  <line x1="2" y1="102" x2="21" y2="102" stroke="#37474f" stroke-width="0.6"/>
  <line x1="2" y1="114" x2="21" y2="114" stroke="#37474f" stroke-width="0.6"/>
  <line x1="2" y1="126" x2="21" y2="126" stroke="#37474f" stroke-width="0.6"/>
  <line x1="27" y1="18" x2="46" y2="18" stroke="#37474f" stroke-width="0.6"/>
  <line x1="27" y1="30" x2="46" y2="30" stroke="#37474f" stroke-width="0.6"/>
  <line x1="27" y1="42" x2="46" y2="42" stroke="#37474f" stroke-width="0.6"/>
  <line x1="27" y1="54" x2="46" y2="54" stroke="#37474f" stroke-width="0.6"/>
  <line x1="27" y1="66" x2="46" y2="66" stroke="#37474f" stroke-width="0.6"/>
  <line x1="27" y1="78" x2="46" y2="78" stroke="#37474f" stroke-width="0.6"/>
  <line x1="27" y1="90" x2="46" y2="90" stroke="#37474f" stroke-width="0.6"/>
  <line x1="27" y1="102" x2="46" y2="102" stroke="#37474f" stroke-width="0.6"/>
  <line x1="27" y1="114" x2="46" y2="114" stroke="#37474f" stroke-width="0.6"/>
  <line x1="27" y1="126" x2="46" y2="126" stroke="#37474f" stroke-width="0.6"/>
  <line x1="0.5" y1="0.5" x2="47.5" y2="0.5" stroke="#263238" stroke-width="1.2"/>
  <line x1="0.5" y1="143.5" x2="47.5" y2="143.5" stroke="#263238" stroke-width="1.2"/>
</svg>
