<svg xmlns="http://www.w3.org/2000/svg" viewBox="0 0 48 24" width="48" height="24">
  <rect x="0.5" y="0.5" width="47" height="23" fill="#7986cb" fill-opacity="0.35" stroke="#37474f" stroke-width="1"/>
  <rect x="1" y="1" width="3" height="22" fill="#5c6bc0" stroke="#37474f" stroke-width="0.5"/>
  <rect x="44" y="1" width="3" height="22" fill="#5c6bc0" stroke="#37474f" stroke-width="0.5"/>
  <rect x="4" y="1" width="40" height="3" fill="#5c6bc0"/>
  <line x1="4" y1="2.5" x2="44" y2="2.5" stroke="#37474f" stroke-width="0.75"/>
  <line x1="10" y1="6" x2="10" y2="20" stroke="#37474f" stroke-width="0.6"/>
  <line x1="16" y1="6" x2="16" y2="20" stroke="#37474f" stroke-width="0.6"/>
  <line x1="22" y1="6" x2="22" y2="20" stroke="#37474f" stroke-width="0.6"/>
  <line x1="28" y1="6" x2="28" y2="20" stroke="#37474f" stroke-width="0.6"/>
  <line x1="34" y1="6" x2="34" y2="20" stroke="#37474f" stroke-width="0.6"/>
  <line x1="40" y1="6" x2="40" y2="20" stroke="#37474f" stroke-width="0.6"/>
  <line x1="0.5" y1="0.5" x2="0.5" y2="23.5" stroke="#263238" stroke-width="1.2"/>
  <line x1="47.5" y1="0.5" x2="47.5" y2="23.5" stroke="#263238" stroke-width="1.2"/>
  <line x1="0.5" y1="0.5" x2="47.5" y2="0.5" stroke="#263238" stroke-width="1.2"/>
  <line x1="0.5" y1="23.5" x2="47.5" y2="23.5" stroke="#263238" stroke-width="1.2"/>
</svg>
